<?xml version="1.0" encoding="utf-8"?>
<!-- Generator: Adobe Illustrator 24.3.0, SVG Export Plug-In . SVG Version: 6.00 Build 0)  -->
<svg version="1.1" id="Capa_1" xmlns="http://www.w3.org/2000/svg" xmlns:xlink="http://www.w3.org/1999/xlink" x="0px" y="0px"
	viewBox="0 0 512 512" style="enable-background:new 0 0 512 512;" xml:space="preserve">
<style type="text/css">
	.st0{fill:#C6C5CA;}
	.st1{fill:#D8D7DA;}
	.st2{fill:#ACABB1;}
	.st3{fill:#E8E8E8;}
	.st4{fill:#FFA1AF;}
	.st5{fill:#5F7080;}
</style>
<g>
	<g>
		<path class="st0" d="M321,77.5H191L206.9,22c2.5-8.6,10.3-14.5,19.2-14.5h59.8c8.9,0,16.8,5.9,19.2,14.5L321,77.5z"/>
	</g>
	<g>
		<path class="st1" d="M84,157.5l22.7,291.7c2.4,31.2,28.5,55.3,59.8,55.3h179c31.3,0,57.4-24.1,59.8-55.3L428,157.5H84z"/>
	</g>
	<g>
		<path class="st2" d="M323.4,346c-17.9,0-32.4,14.5-32.4,32.4v106.1c0,11-9,20-20,20h38c20.9,0,38.3-16.1,39.9-36.9l6.7-86.7
			C357.1,362.1,342.2,346,323.4,346z"/>
	</g>
	<g>
		<path class="st2" d="M221,484.5V378.4c0-17.9-14.5-32.4-32.4-32.4c-18.9,0-33.7,16.1-32.3,34.9l6.7,86.7
			c1.6,20.8,19,36.9,39.9,36.9h38C230,504.5,221,495.5,221,484.5L221,484.5z"/>
	</g>
	<g>
		<path class="st3" d="M426,187.5H86c-16.6,0-30-13.4-30-30s13.4-30,30-30l170-10l170,10c16.6,0,30,13.4,30,30
			S442.6,187.5,426,187.5z"/>
	</g>
	<g>
		<path class="st1" d="M426,127.5H86c-16.6,0-30-13.4-30-30s13.4-30,30-30h340c16.6,0,30,13.4,30,30S442.6,127.5,426,127.5z"/>
	</g>
	<g>
		<g>
			<g>
				<g>
					<ellipse class="st4" cx="176.4" cy="275" rx="29.4" ry="23.4"/>
				</g>
			</g>
			<g>
				<g>
					<ellipse class="st4" cx="335.6" cy="275" rx="29.4" ry="23.4"/>
				</g>
			</g>
			<g>
				<g>
					<path class="st5" d="M279.7,257c0-14.6-10.6-16-23.7-16c-13.1,0-23.7,1.4-23.7,16c0,14.6,10.6,26.5,23.7,26.5
						C269.1,283.5,279.7,271.7,279.7,257z"/>
				</g>
			</g>
		</g>
		<g>
			<g>
				<path d="M181.3,254.6c-4.1,0-7.5-3.4-7.5-7.5v-12c0-4.1,3.4-7.5,7.5-7.5s7.5,3.4,7.5,7.5v12
					C188.8,251.2,185.4,254.6,181.3,254.6z"/>
			</g>
		</g>
		<g>
			<g>
				<path d="M256,291c-17.2,0-31.2-15.3-31.2-34c0-23.5,21.9-23.5,31.2-23.5c9.3,0,31.2,0,31.2,23.5C287.2,275.8,273.2,291,256,291z
					M256,248.5c-15.5,0-16.2,2.6-16.2,8.5c0,10.5,7.3,19,16.2,19s16.2-8.5,16.2-19C272.2,251.1,271.5,248.5,256,248.5L256,248.5z"
					/>
			</g>
		</g>
		<g>
			<g>
				<path d="M330.7,254.6c-4.1,0-7.5-3.4-7.5-7.5v-12c0-4.1,3.4-7.5,7.5-7.5s7.5,3.4,7.5,7.5v12
					C338.2,251.2,334.9,254.6,330.7,254.6z"/>
			</g>
		</g>
	</g>
	<g>
		<path d="M448.5,127.5c14.9-11.2,21.2-33.2,7.2-54.2c-5.6-8.4-15.1-13.3-25.1-13.3H323.8l-13.1-45.7C308.3,5.8,300.6,0,291.8,0
			h-65.7c-12.2,0-23.1,8.2-26.4,19.9L188.2,60H81.4c-10.1,0-19.6,4.9-25.1,13.3c-14,21-7.7,43,7.2,54.2c-9.1,6.8-15,17.7-15,30
			c0,18.4,13.3,33.8,30.9,36.9l19.9,255.3c1.3,17,8.9,32.7,21.5,44.3c12.5,11.6,28.8,18,45.8,18h179c17,0,33.3-6.4,45.8-18
			c12.5-11.6,20.1-27.3,21.5-44.3l19.9-255.3c17.5-3.1,30.9-18.5,30.9-36.9C463.5,145.2,457.6,134.3,448.5,127.5L448.5,127.5z
			 M215.7,18.4c0.6-2,2.4-3.4,4.5-3.4h71.6c2.1,0,3.9,1.4,4.5,3.4L308.2,60H203.8L215.7,18.4z M310.5,497c-0.1,0-0.2,0-0.3,0h-14.7
			c1.9-3.8,3.1-8,3.1-12.5V373.7c0-5.6,2.6-11,7.2-14.2c12.9-9.1,27.2-7.4,35.9,2c4.8,5.1,7.1,11.8,6.5,18.8l-6.7,86.7
			C340.1,483.4,326.8,496.2,310.5,497z M397.8,448.6c-2.1,27.2-25.1,48.4-52.3,48.4h-1.9c7.2-7.6,11.9-17.7,12.7-28.8l6.7-86.7
			c0.9-11-3-22-10.5-30.2c-7.5-8.1-18.2-12.8-29.3-12.8c-22,0-39.9,17.9-39.9,39.9v106.1c0,6.1-4.6,11.5-10.6,12.4
			c-0.2,0-0.5,0.1-0.7,0.1h-32.5c-0.2-0.1-0.5-0.1-0.8-0.2c-6-1-10.4-6.2-10.4-12.3v-49.1c-6.6-7.5-15-2.9-15,3.6v45.5
			c0,4.5,1.1,8.7,3,12.5h-14.6c-0.1,0-0.2,0-0.3,0c-16.4-0.7-29.7-13.6-30.9-29.9l-6.7-86.7c-0.7-9.6,3.9-18.6,12.9-23.9
			c0.7-0.4,1.4-0.7,2.2-1c17.7-6.8,34.6,6.2,34.6,23l0,62.5c6.6,7.5,15,1.1,15-5.5l0-57.1c0-22-17.9-39.9-39.9-39.9
			c-11.1,0-21.7,4.7-29.3,12.8c-7.5,8.1-11.3,19.1-10.5,30.2l6.7,86.7c0.9,11.1,5.6,21.2,12.7,28.8h-1.9
			c-27.2,0-50.2-21.3-52.3-48.4L94.5,195h323.1L397.8,448.6z M426,180l-344.3,0c-4.7,0-9.2-2.2-12.1-5.9C55.3,155.6,68.3,135,86,135
			l232.2-0.2c1.1,0,1.7-0.2,2.4-1c5.7-6.4,3.5-13.5-2.7-13.5L81.7,120c-4.7,0-9.2-2.2-12.1-5.9C55.3,95.6,68.3,75,86,75l344.3,0
			c4.7,0,9.2,2.2,12.1,5.9c14.4,18.5,1.4,39.1-16.3,39.1l-115.3,0.3c-7.5,6.6-13.3,14.5-6.8,14.5l126.4,0.2c4.7,0,9.2,2.2,12.1,5.9
			C456.7,159.4,443.7,180,426,180z"/>
	</g>
</g>
</svg>
